HIERARCHY
ROOT Hips
{
	OFFSET 0.000000 0.000000 0.000000
	CHANNELS 6 Xposition Yposition Zposition Xrotation Yrotation Zrotation
	JOINT LeftUpLeg_virtual
	{
		OFFSET 0.000000 0.000000 0.000000
		CHANNELS 3 Xrotation Yrotation Zrotation
		JOINT LeftUpLeg
		{
			OFFSET 13.026900 -6.336304 -1.092800
			CHANNELS 3 Xrotation Yrotation Zrotation
			JOINT LeftLeg
			{
				OFFSET 0.524474 -46.096886 9.782700
				CHANNELS 3 Xrotation Yrotation Zrotation
				JOINT LeftFoot
				{
					OFFSET -0.524474 -53.427422 -12.948200
					CHANNELS 3 Xrotation Yrotation Zrotation
					JOINT LeftToeBase
					{
						OFFSET 0.192200 -14.009700 16.364100
						CHANNELS 3 Xrotation Yrotation Zrotation
						JOINT LeftToe_End
						{
							OFFSET -1.784700 -0.561700 9.474800
							CHANNELS 3 Xrotation Yrotation Zrotation
							End Site
							{
								OFFSET 0 0 0
							}
						}
					}
				}
			}
		}
	}
	JOINT RightUpLeg_virtual
	{
		OFFSET 0.000000 0.000000 0.000000
		CHANNELS 3 Xrotation Yrotation Zrotation
		JOINT RightUpLeg
		{
			OFFSET -12.883000 -6.336304 -1.092800
			CHANNELS 3 Xrotation Yrotation Zrotation
			JOINT RightLeg
			{
				OFFSET -0.524587 -46.096825 9.782800
				CHANNELS 3 Xrotation Yrotation Zrotation
				JOINT RightFoot
				{
					OFFSET 0.524587 -53.427383 -12.948300
					CHANNELS 3 Xrotation Yrotation Zrotation
					JOINT RightToeBase
					{
						OFFSET -0.192200 -14.009700 16.364100
						CHANNELS 3 Xrotation Yrotation Zrotation
						JOINT RightToe_End
						{
							OFFSET 1.784700 -0.561700 9.474800
							CHANNELS 3 Xrotation Yrotation Zrotation
							End Site
							{
								OFFSET 0 0 0
							}
						}
					}
				}
			}
		}
	}
	JOINT Spine_virtual
	{
		OFFSET 0.000000 0.000000 0.000000
		CHANNELS 3 Xrotation Yrotation Zrotation
		JOINT Spine
		{
			OFFSET 0.072000 7.257294 -0.789700
			CHANNELS 3 Xrotation Yrotation Zrotation
			JOINT Spine1
			{
				OFFSET 0.000000 12.508769 -0.658067
				CHANNELS 3 Xrotation Yrotation Zrotation
				JOINT Spine1_split
				{
					OFFSET 0.000000 12.508769 -0.658067
					CHANNELS 3 Xrotation Yrotation Zrotation
					JOINT Spine2
					{
						OFFSET 0.000000 12.508769 -0.658067
						CHANNELS 3 Xrotation Yrotation Zrotation
						JOINT Neck_virtual
						{
							OFFSET 0.000000 0.000000 0.000000
							CHANNELS 3 Xrotation Yrotation Zrotation
							JOINT Neck
							{
								OFFSET 0.000000 14.033295 7.520400
								CHANNELS 3 Xrotation Yrotation Zrotation
								JOINT Head
								{
									OFFSET 0.000000 8.198502 5.703100
									CHANNELS 3 Xrotation Yrotation Zrotation
									JOINT HeadTop_End
									{
										OFFSET 0.000000 17.760803 13.332701
										CHANNELS 3 Xrotation Yrotation Zrotation
										End Site
										{
											OFFSET 0 0 0
										}
									}
								}
							}
						}
						JOINT LeftShoulder_virtual
						{
							OFFSET 0.000000 0.000000 0.000000
							CHANNELS 3 Xrotation Yrotation Zrotation
							JOINT LeftShoulder
							{
								OFFSET 6.292450 5.785301 -0.669000
								CHANNELS 3 Xrotation Yrotation Zrotation
								JOINT LeftShoulder_split
								{
									OFFSET 6.292450 5.785301 -0.669000
									CHANNELS 3 Xrotation Yrotation Zrotation
									JOINT LeftArm
									{
										OFFSET 13.907140 -6.093903 1.965100
										CHANNELS 3 Xrotation Yrotation Zrotation
										JOINT LeftForeArm
										{
											OFFSET 34.140198 0.000000 0.000000
											CHANNELS 3 Xrotation Yrotation Zrotation
											JOINT LeftHand
											{
												OFFSET 40.960209 0.000000 0.000000
												CHANNELS 3 Xrotation Yrotation Zrotation
												End Site
												{
													OFFSET 0 0 0
												}
											}
										}
									}
								}
							}
						}
						JOINT RightShoulder_virtual
						{
							OFFSET 0.000000 0.000000 0.000000
							CHANNELS 3 Xrotation Yrotation Zrotation
							JOINT RightShoulder
							{
								OFFSET -6.292450 5.785301 -0.669000
								CHANNELS 3 Xrotation Yrotation Zrotation
								JOINT RightShoulder_split
								{
									OFFSET -6.292450 5.785301 -0.669000
									CHANNELS 3 Xrotation Yrotation Zrotation
									JOINT RightArm
									{
										OFFSET -13.907140 -6.093903 1.965100
										CHANNELS 3 Xrotation Yrotation Zrotation
										JOINT RightForeArm
										{
											OFFSET -34.140198 0.000000 0.000000
											CHANNELS 3 Xrotation Yrotation Zrotation
											JOINT RightHand
											{
												OFFSET -40.960209 0.000000 0.000000
												CHANNELS 3 Xrotation Yrotation Zrotation
												End Site
												{
													OFFSET 0 0 0
												}
											}
										}
									}
								}
							}
						}
					}
				}
			}
		}
	}
}
MOTION
Frames: 9
Frame Time: 0.03333333
5.853034 103.733879 -3.152096 0.000000 0.000000 0.000000 22.594508 12.501930 -3.459951 -65.001940 4.680329 -6.201903 67.070593 11.844251 -4.620201 15.406608 -8.776378 12.936877 1.458733 2.454916 -5.202576 0.000000 0.000000 0.000000 21.069580 8.986611 -2.216702 -23.749947 -17.135732 -0.404062 37.003001 5.296825 0.048276 -28.581657 -11.876227 -3.183186 1.629185 2.295230 -6.446619 0.000000 0.000000 0.000000 22.497615 12.438018 -4.123633 4.823726 -1.587358 -0.609152 1.212503 -0.200824 -1.358542 0.025953 -0.301555 0.069770 0.000000 0.000000 0.000000 2.340554 2.727625 -1.265260 -19.950047 11.577817 3.986717 -19.122371 8.940041 -2.394873 0.000000 0.000000 0.000000 1.698469 1.548908 -1.339325 1.062985 3.147120 -16.179704 1.920489 0.703006 -0.854248 7.501719 4.898513 -44.490848 -6.510034 -64.605195 -11.296236 0.000000 0.000000 0.000000 3.596101 1.674287 -1.616302 -3.736662 3.460879 19.147262 1.348880 -3.130302 0.910121 14.881543 -14.963322 46.072881 -9.356193 69.284244 12.931846 0.000000 0.000000 0.000000 
4.932742 102.848068 1.509880 0.000000 0.000000 0.000000 22.358182 11.592309 -3.190154 -66.085010 8.148709 -5.854721 62.325422 13.492777 -4.182899 11.508852 -9.020110 14.193212 0.626049 2.498780 -4.638101 0.000000 0.000000 0.000000 22.407414 8.105147 -1.780963 -22.842656 -16.098384 0.130361 37.090960 5.427786 -0.170131 -27.661421 -12.620786 -0.399700 -4.951441 2.533910 -6.384649 0.000000 0.000000 0.000000 23.357674 13.062889 -4.263996 5.108982 -1.349539 -0.866846 1.655952 -0.114874 -1.362508 0.160226 -0.375035 0.122490 0.000000 0.000000 0.000000 2.526805 2.740589 -1.310259 -20.065708 11.470593 4.240876 -19.596955 8.588813 -2.104504 0.000000 0.000000 0.000000 1.712999 1.659647 -1.400823 1.123392 3.295195 -16.094933 1.671718 0.138041 -0.818049 7.318645 5.036037 -44.526024 -6.887625 -64.608829 -11.546202 0.000000 0.000000 0.000000 3.610021 1.704378 -1.643280 -3.874425 3.396033 18.931990 1.350161 -1.991457 0.713043 15.248312 -14.548021 46.827702 -10.525181 70.441872 13.898956 0.000000 0.000000 0.000000 
3.757331 102.062439 7.161037 0.000000 0.000000 0.000000 22.752187 10.208511 -2.906881 -68.117586 11.550321 -5.033388 56.814302 14.232411 -2.692017 8.462750 -9.196229 13.767413 1.828542 2.290820 -2.964709 0.000000 0.000000 0.000000 24.074235 8.463035 -1.998444 -19.290625 -14.733254 1.331464 35.183151 5.131430 -0.384529 -29.425507 -13.415072 0.267077 -5.613873 2.757790 -6.652039 0.000000 0.000000 0.000000 24.289853 12.935998 -4.295912 5.521484 -0.880937 -1.172784 2.114413 0.148125 -1.398174 0.244200 -0.402739 0.131636 0.000000 0.000000 0.000000 2.795868 2.879724 -1.392136 -20.711724 11.170996 4.826202 -20.757261 7.320417 -1.656334 0.000000 0.000000 0.000000 1.664125 1.911729 -1.475657 1.129343 3.482046 -15.991872 1.215018 -0.527239 -0.829994 7.670028 4.822149 -44.849771 -6.906018 -64.603986 -11.367709 0.000000 0.000000 0.000000 3.632781 1.894867 -1.699864 -4.076088 3.335588 18.545120 1.508956 -1.434022 0.656021 16.051663 -14.009727 47.935128 -13.169266 72.047533 16.369303 0.000000 0.000000 0.000000 
2.583214 101.447289 13.276638 0.000000 0.000000 0.000000 23.663728 8.932048 -2.627334 -70.522516 13.666816 -4.503679 51.227290 13.610429 -0.301433 7.605685 -9.311494 12.005727 3.232676 1.925662 -0.207049 0.000000 0.000000 0.000000 25.542017 8.628816 -2.452355 -14.807597 -13.549311 2.284675 31.737652 4.686136 -0.581625 -32.315602 -13.935106 -0.205179 -1.367564 3.065334 -7.212833 0.000000 0.000000 0.000000 25.364269 12.225073 -4.276310 5.839074 -0.310344 -1.530515 2.432349 0.505124 -1.443810 0.170031 -0.339708 0.094841 0.000000 0.000000 0.000000 3.126006 3.113509 -1.472788 -21.679686 10.719119 5.627694 -22.463422 5.396967 -1.092333 0.000000 0.000000 0.000000 1.551881 2.245461 -1.530856 1.093050 3.695873 -15.916207 0.668194 -1.021177 -0.802891 8.372915 4.337238 -45.395869 -6.599324 -64.533089 -10.780269 0.000000 0.000000 0.000000 3.660579 2.165861 -1.778960 -4.303587 3.203528 17.980082 1.763950 -1.369985 0.962115 17.198201 -13.611504 49.038617 -17.421017 73.991890 20.541271 0.000000 0.000000 0.000000 
1.452645 100.981270 19.729305 0.000000 0.000000 0.000000 24.850638 7.774544 -2.395588 -72.774074 14.773919 -4.284944 45.566835 12.237865 2.318140 7.947329 -9.272772 10.383825 3.291008 1.460520 3.049287 0.000000 0.000000 0.000000 26.466956 7.979177 -2.696138 -10.607367 -12.980303 2.380319 28.188764 5.248853 -0.835458 -33.584354 -13.859584 0.690852 2.143155 3.690662 -7.751459 0.000000 0.000000 0.000000 26.615509 11.500105 -4.192886 5.943383 0.240690 -1.935471 2.557363 0.894093 -1.487349 0.108189 -0.148230 0.050225 0.000000 0.000000 0.000000 3.453072 3.389894 -1.530999 -22.649413 10.124809 6.480468 -24.441176 3.131714 -0.470521 0.000000 0.000000 0.000000 1.401253 2.596503 -1.555993 1.028981 3.949566 -15.974904 0.275832 -1.303664 -0.664531 9.030957 3.750863 -46.058722 -6.045995 -64.273344 -9.882816 0.000000 0.000000 0.000000 3.725075 2.446924 -1.869204 -4.512122 2.966742 17.242642 2.052847 -1.415469 1.662592 18.664882 -13.488785 49.824294 -23.323552 76.049553 26.511663 0.000000 0.000000 0.000000 
0.247083 100.367798 25.518839 0.000000 0.000000 0.000000 25.856332 6.775510 -2.133162 -74.211522 15.266306 -4.262338 40.376674 10.505510 4.524536 8.325597 -8.984216 9.570453 2.569614 0.941696 5.679318 0.000000 0.000000 0.000000 26.751008 6.719413 -2.538034 -7.594662 -13.162343 1.628913 25.563014 7.044897 -1.164077 -31.559876 -13.084452 3.817309 1.261066 4.727115 -7.970173 0.000000 0.000000 0.000000 27.678722 10.723481 -3.966906 5.837791 0.659543 -2.428020 2.461267 1.229889 -1.512298 0.121311 0.072912 -0.006308 0.000000 0.000000 0.000000 3.700048 3.659720 -1.544958 -23.352350 9.549655 7.291072 -26.337389 0.769022 0.214023 0.000000 0.000000 0.000000 1.256685 2.908382 -1.560401 0.944191 4.216001 -16.118135 0.041685 -1.429996 -0.480384 9.252789 3.273592 -46.689336 -5.461429 -63.842338 -8.891591 0.000000 0.000000 0.000000 3.822840 2.700512 -1.953351 -4.693292 2.597175 16.375722 2.082282 -1.193176 2.706528 20.349254 -13.700488 50.087160 -30.301974 77.859328 33.702916 0.000000 0.000000 0.000000 
-1.012877 99.322403 31.441809 0.000000 0.000000 0.000000 26.085923 6.021236 -1.853960 -75.020551 15.295247 -4.268746 37.219343 8.570964 5.810176 8.495451 -8.459697 9.104397 2.764774 0.649790 6.619039 0.000000 0.000000 0.000000 26.517410 4.762239 -1.971679 -6.128208 -13.713261 0.496967 24.715137 8.895614 -1.520498 -27.343257 -12.002403 6.924292 -3.819117 5.899651 -7.581478 0.000000 0.000000 0.000000 28.226249 10.154916 -3.754073 5.628128 0.909311 -2.977937 2.238439 1.495539 -1.530822 0.149652 0.283971 -0.006271 0.000000 0.000000 0.000000 3.806526 3.871433 -1.527124 -23.796866 9.104742 8.017556 -27.736042 -1.679752 1.007688 0.000000 0.000000 0.000000 1.155417 3.120024 -1.589773 0.847143 4.378669 -16.332946 0.217196 -1.402114 -0.234622 8.890078 3.015482 -47.185727 -4.920546 -63.406285 -7.954652 0.000000 0.000000 0.000000 3.892965 2.903009 -2.027826 -4.865075 2.160169 15.506911 1.467439 -0.657568 3.981484 22.009438 -14.140769 49.840116 -36.889357 79.222196 40.612021 0.000000 0.000000 0.000000 
-2.216947 97.522362 37.317654 0.000000 0.000000 0.000000 25.574416 5.171851 -1.537591 -75.545977 15.067852 -3.685115 37.451771 6.440241 6.039034 8.181686 -7.816627 9.097796 3.554040 0.621653 6.178659 0.000000 0.000000 0.000000 26.153170 2.830840 -1.260062 -6.931626 -14.573008 -1.128919 27.580572 10.108387 -1.849844 -21.789519 -11.151043 8.847103 -11.867867 6.662989 -6.451489 0.000000 0.000000 0.000000 28.058306 9.963237 -3.630288 5.532733 0.956525 -3.463859 2.075454 1.671968 -1.561326 0.165817 0.384752 0.036068 0.000000 0.000000 0.000000 3.731763 4.006002 -1.512476 -23.938910 8.879481 8.652161 -28.583327 -3.950537 1.881951 0.000000 0.000000 0.000000 1.112423 3.209592 -1.673362 0.768621 4.346547 -16.525159 0.556265 -1.113939 -0.284508 8.097668 3.016911 -47.476730 -4.445434 -63.251500 -7.170309 0.000000 0.000000 0.000000 3.915306 3.057039 -2.072666 -5.037718 1.751611 14.843664 0.541382 -0.054024 5.411903 23.386351 -14.646685 49.189776 -41.092897 80.123843 45.174123 0.000000 0.000000 0.000000 
-3.349335 94.968025 42.836357 0.000000 0.000000 0.000000 24.577751 3.843668 -0.976892 -75.289264 14.889788 -2.580361 40.788527 4.432074 5.489363 6.497965 -7.262643 10.227504 4.214277 0.643324 5.197407 0.000000 0.000000 0.000000 25.286569 1.633564 -0.684445 -11.800499 -15.619840 -4.246718 36.167296 11.234896 -2.114990 -13.600333 -10.261002 11.072022 -19.263065 6.562821 -4.941426 0.000000 0.000000 0.000000 26.986448 10.232232 -3.562402 5.758479 0.755540 -3.800119 2.018082 1.733876 -1.612627 0.143981 0.315348 0.015528 0.000000 0.000000 0.000000 3.492185 4.048076 -1.510070 -23.820590 8.950133 9.098772 -28.994898 -5.822776 2.694734 0.000000 0.000000 0.000000 1.063178 3.188220 -1.786736 0.691294 4.065525 -16.534186 0.854549 -0.714230 -0.634473 7.266711 3.318453 -47.531044 -4.024082 -63.625712 -6.560115 0.000000 0.000000 0.000000 3.864844 3.154151 -2.078087 -5.235560 1.458069 14.450990 -0.071317 0.474330 6.528757 24.137147 -15.091631 48.341002 -41.507534 80.632084 45.892482 0.000000 0.000000 0.000000 
